<svg xmlns="http://www.w3.org/2000/svg" viewBox="0 0 360 150" width="100%" style="max-width:340px" font-family="inherit"><text x="12" y="16" font-size="9" letter-spacing="1" fill="currentColor" fill-opacity=".55">MEANING</text><rect x="24" y="40" width="120" height="84" rx="6" fill="#f08c00" fill-opacity=".12" stroke="#f08c00" stroke-width="2" /><text x="34" y="60" font-size="13" fill="currentColor">&amp;id001</text><line x1="34" y1="78" x2="134" y2="78" stroke="currentColor" stroke-opacity=".3" stroke-width="3" stroke-linecap="round" /><line x1="34" y1="92" x2="118" y2="92" stroke="currentColor" stroke-opacity=".3" stroke-width="3" stroke-linecap="round" /><line x1="34" y1="106" x2="128" y2="106" stroke="currentColor" stroke-opacity=".3" stroke-width="3" stroke-linecap="round" /><rect x="240" y="40" width="90" height="24" rx="12" fill="none" stroke="#339af0" stroke-width="1.5" /><text x="285" y="57" font-size="13" text-anchor="middle" fill="currentColor">*id001</text><rect x="240" y="70" width="90" height="24" rx="12" fill="none" stroke="#339af0" stroke-width="1.5" /><text x="285" y="87" font-size="13" text-anchor="middle" fill="currentColor">*id001</text><rect x="240" y="100" width="90" height="24" rx="12" fill="none" stroke="#339af0" stroke-width="1.5" /><text x="285" y="117" font-size="13" text-anchor="middle" fill="currentColor">*id001</text><line x1="154" y1="52" x2="240" y2="52" stroke="#339af0" stroke-width="1.5" /><polygon points="146,52 156,47 156,57" fill="#339af0" /><line x1="154" y1="82" x2="240" y2="82" stroke="#339af0" stroke-width="1.5" /><polygon points="146,82 156,77 156,87" fill="#339af0" /><line x1="154" y1="112" x2="240" y2="112" stroke="#339af0" stroke-width="1.5" /><polygon points="146,112 156,107 156,117" fill="#339af0" /><text x="180" y="120" font-size="0" fill="currentColor" /><text x="180" y="142" font-size="11" text-anchor="middle" fill="currentColor" fill-opacity=".7">one block, three pointers back</text></svg>
