<svg xmlns="http://www.w3.org/2000/svg" viewBox="0 0 360 160" width="100%" style="max-width:340px" font-family="inherit"><text x="12" y="18" font-size="9" letter-spacing="1" fill="currentColor" fill-opacity=".55">EXAMPLE</text><g font-size="11"><rect x="70" y="30" width="130" height="20" fill="none" stroke="currentColor" stroke-opacity=".5" /><text x="82" y="44" fill="currentColor" fill-opacity=".6">price = 10</text><rect x="70" y="52" width="130" height="20" fill="none" stroke="currentColor" stroke-opacity=".5" /><text x="82" y="66" fill="currentColor" fill-opacity=".6">price = 12</text><rect x="70" y="74" width="130" height="20" fill="none" stroke="currentColor" stroke-opacity=".5" /><text x="82" y="88" fill="currentColor" fill-opacity=".6">price = 15</text><rect x="70" y="96" width="130" height="20" rx="2" fill="#f08c00" /><text x="82" y="110" fill="#fff" font-weight="bold">price = 18</text></g><path d="M58 30 H52 V116 H58" fill="none" stroke="#339af0" stroke-width="1.5" /><text transform="translate(44 73) rotate(-90)" text-anchor="middle" font-size="11" fill="#339af0">history</text><line x1="135" y1="148" x2="135" y2="124" stroke="#f08c00" stroke-width="2" /><polygon points="135,118 130,126 140,126" fill="#f08c00" /><text x="145" y="145" font-size="11" fill="#f08c00">append new row</text><line x1="238" y1="106" x2="210" y2="106" stroke="currentColor" stroke-width="1.5" /><polygon points="204,106 212,101 212,111" fill="currentColor" /><text x="242" y="104" font-size="10" fill="currentColor">latest row =</text><text x="242" y="116" font-size="10" fill="currentColor">current value</text><path d="M212 45 l8 8 m0 -8 l-8 8" stroke="#fa5252" stroke-width="2" /><text x="226" y="53" font-size="10" fill="#fa5252">no edit</text><path d="M212 67 l8 8 m0 -8 l-8 8" stroke="#fa5252" stroke-width="2" /><text x="226" y="75" font-size="10" fill="#fa5252">no delete</text></svg>
