<svg xmlns="http://www.w3.org/2000/svg" viewBox="0 0 360 150" width="100%" style="max-width:340px" font-family="inherit"><text x="10" y="14" font-size="9" letter-spacing="1" fill="currentColor" fill-opacity=".55">EXAMPLE</text><text x="20" y="36" font-size="10" fill="currentColor" fill-opacity=".7">checkpoint Δ</text><text x="250" y="36" font-size="10" fill="currentColor" fill-opacity=".7">day written</text><text x="194" y="36" font-size="11" fill="#f08c00" text-anchor="middle">attributed to</text><g fill="none" stroke="currentColor" stroke-width="1.2"><rect x="20" y="48" width="120" height="26" rx="4" /><rect x="20" y="82" width="120" height="26" rx="4" /><rect x="20" y="116" width="120" height="26" rx="4" /><rect x="250" y="48" width="90" height="26" rx="4" /><rect x="250" y="82" width="90" height="26" rx="4" /><rect x="250" y="116" width="90" height="26" rx="4" /></g><g font-size="12" fill="currentColor"><text x="30" y="65">ckpt A</text><text x="30" y="99">ckpt B</text><text x="30" y="133">ckpt C</text><text x="295" y="65" text-anchor="middle">Mon</text><text x="295" y="99" text-anchor="middle">Tue</text><text x="295" y="133" text-anchor="middle">Wed</text></g><g font-size="12"><text x="130" y="65" text-anchor="end" fill="#37b24d">Δ +12</text><text x="130" y="99" text-anchor="end" fill="#37b24d">Δ +5</text><text x="130" y="133" text-anchor="end" fill="#fa5252">Δ −3</text></g><g stroke="#f08c00" stroke-width="1.6"><line x1="142" y1="61" x2="240" y2="93" /><line x1="142" y1="95" x2="240" y2="63" /><line x1="142" y1="129" x2="240" y2="129" /></g><g fill="#f08c00"><polygon points="248,95 238,97 241,89" /><polygon points="248,61 241,67 238,59" /><polygon points="248,129 239,125 239,133" /></g></svg>
