<svg xmlns="http://www.w3.org/2000/svg" viewBox="0 0 360 200" width="100%" style="max-width:340px" font-family="inherit"><title>bottleneck: one narrow neck limits the whole pipe</title><path d="M20 50 H180 L200 82 H240 L260 50 H340" fill="none" stroke="currentColor" stroke-width="2.5" /><path d="M20 130 H180 L200 98 H240 L260 130 H340" fill="none" stroke="currentColor" stroke-width="2.5" /><rect x="200" y="82" width="40" height="16" fill="#f08c00" fill-opacity="0.2" /><line x1="200" y1="82" x2="240" y2="82" stroke="#f08c00" stroke-width="4" /><line x1="200" y1="98" x2="240" y2="98" stroke="#f08c00" stroke-width="4" /><line x1="220" y1="44" x2="220" y2="76" stroke="#f08c00" stroke-width="1.5" /><text x="220" y="38" text-anchor="middle" font-size="13" font-weight="bold" fill="#f08c00">bottleneck</text><g fill="#339af0"><circle cx="45" cy="74" r="5" /><circle cx="60" cy="106" r="5" /><circle cx="80" cy="84" r="5" /><circle cx="95" cy="112" r="5" /><circle cx="100" cy="66" r="5" /><circle cx="115" cy="92" r="5" /><circle cx="125" cy="66" r="5" /><circle cx="130" cy="114" r="5" /><circle cx="140" cy="82" r="5" /><circle cx="145" cy="100" r="5" /><circle cx="155" cy="66" r="5" /><circle cx="160" cy="116" r="5" /><circle cx="165" cy="84" r="5" /><circle cx="170" cy="100" r="5" /><circle cx="175" cy="68" r="5" /><circle cx="178" cy="114" r="5" /><circle cx="188" cy="90" r="5" /><circle cx="210" cy="90" r="5" /></g><g fill="#37b24d"><circle cx="285" cy="90" r="5" /><circle cx="318" cy="90" r="5" /></g><path d="M292 112 H322" stroke="currentColor" stroke-opacity="0.5" stroke-width="1.5" /><polygon points="322,108 330,112 322,116" fill="currentColor" fill-opacity="0.5" /><text x="100" y="150" text-anchor="middle" font-size="12" fill="#339af0">many waiting</text><text x="300" y="150" text-anchor="middle" font-size="12" fill="#37b24d">few done</text><text x="180" y="185" text-anchor="middle" font-size="12" fill="currentColor">Widen anything else: still slow</text></svg>
