<svg xmlns="http://www.w3.org/2000/svg" viewBox="0 0 360 150" width="100%" style="max-width:340px" font-family="inherit"><text x="12" y="16" font-size="9" letter-spacing="1" fill="currentColor" fill-opacity=".55">EXAMPLE</text><text x="30" y="46" font-size="10" fill="currentColor" fill-opacity=".7">copy made</text><line x1="50" y1="60" x2="320" y2="60" stroke="currentColor" stroke-width="2.5" /><circle cx="110" cy="60" r="3.5" fill="currentColor" /><circle cx="170" cy="60" r="3.5" fill="currentColor" /><circle cx="230" cy="60" r="3.5" fill="currentColor" /><circle cx="290" cy="60" r="3.5" fill="currentColor" /><path d="M50,60 C150,62 230,80 320,110" fill="none" stroke="#f08c00" stroke-width="2.5" /><circle cx="50" cy="60" r="5" fill="#f08c00" /><text x="325" y="64" font-size="11" fill="currentColor">repo</text><text x="325" y="114" font-size="11" fill="#f08c00">copy</text><line x1="298" y1="65" x2="298" y2="98" stroke="#f08c00" stroke-width="1.2" stroke-dasharray="3 2" /><line x1="294" y1="65" x2="302" y2="65" stroke="#f08c00" stroke-width="1.2" /><line x1="294" y1="98" x2="302" y2="98" stroke="#f08c00" stroke-width="1.2" /><text x="56" y="108" font-size="10" fill="currentColor" fill-opacity=".6" font-style="italic">no one changed it on purpose</text><line x1="50" y1="126" x2="316" y2="126" stroke="currentColor" stroke-opacity=".4" /><polygon points="322,126 314,122 314,130" fill="currentColor" fill-opacity=".4" /><text x="36" y="142" font-size="10" fill="currentColor" fill-opacity=".6">day 1</text><text x="272" y="142" font-size="10" fill="currentColor" fill-opacity=".6">month 6</text></svg>
