<svg xmlns="http://www.w3.org/2000/svg" viewBox="0 0 360 160" width="100%" style="max-width:340px" font-family="inherit"><text x="12" y="16" font-size="9" letter-spacing="1" fill="currentColor" fill-opacity=".55">EXAMPLE</text><rect x="14" y="30" width="140" height="104" rx="6" fill="none" stroke="currentColor" stroke-opacity=".6" /><rect x="14" y="30" width="140" height="20" rx="6" fill="currentColor" fill-opacity=".08" /><text x="24" y="44" font-size="11" fill="currentColor" fill-opacity=".7">policy</text><text x="24" y="70" font-size="10" fill="currentColor">alice: allow read</text><text x="24" y="90" font-size="10" fill="currentColor">bob: allow write</text><rect x="22" y="101" width="124" height="22" rx="3" fill="none" stroke="#f08c00" stroke-dasharray="3 3" /><text x="30" y="116" font-size="10" fill="#f08c00">no line for root</text><circle cx="200" cy="86" r="19" fill="#f08c00" /><text x="200" y="90" font-size="11" fill="#fff" text-anchor="middle">root</text><g stroke="currentColor" stroke-opacity=".6" stroke-width="1.5"><line x1="218" y1="80" x2="254" y2="54" /><line x1="220" y1="86" x2="254" y2="86" /><line x1="218" y1="92" x2="254" y2="118" /></g><g fill="currentColor" fill-opacity=".6"><polygon points="260,50 250,51 255,58" /><polygon points="261,86 253,82 253,90" /><polygon points="260,122 255,114 250,121" /></g><g fill="none" stroke="currentColor" stroke-opacity=".6"><rect x="262" y="39" width="84" height="22" rx="4" /><rect x="262" y="75" width="84" height="22" rx="4" /><rect x="262" y="107" width="84" height="22" rx="4" /></g><g font-size="11" fill="currentColor"><text x="271" y="54">read</text><text x="271" y="90">write</text><text x="271" y="122">delete</text></g><g fill="none" stroke="#37b24d" stroke-width="2" stroke-linecap="round" stroke-linejoin="round"><polyline points="323,50 328,55 337,45" /><polyline points="323,86 328,91 337,81" /><polyline points="323,118 328,123 337,113" /></g><text x="270" y="150" font-size="12" fill="#f08c00" text-anchor="middle">allowed implicitly</text></svg>
