<svg xmlns="http://www.w3.org/2000/svg" viewBox="0 0 360 160" width="100%" style="max-width:340px" font-family="inherit"><text x="10" y="16" font-size="9" letter-spacing="1" fill="currentColor" fill-opacity=".55">EXAMPLE</text><path d="M20 30 L230 82 L230 98 L20 150" fill="currentColor" fill-opacity=".05" stroke="currentColor" stroke-opacity=".6" stroke-width="1.5" /><g font-size="11" fill="currentColor"><text x="32" y="62" fill-opacity=".45">CSP rule</text><text x="32" y="82" fill-opacity=".45">cache</text><text x="32" y="102" fill-opacity=".45">ad blocker</text><text x="32" y="122" fill="#f08c00" font-weight="bold">timing</text></g><g stroke="#fa5252" stroke-width="1.5"><line x1="30" y1="58" x2="86" y2="58" /><line x1="30" y1="78" x2="66" y2="78" /><line x1="30" y1="98" x2="98" y2="98" /></g><path d="M76 118 C130 116 170 92 226 90" fill="none" stroke="#f08c00" stroke-width="2" /><polygon points="236,90 226,85 226,95" fill="#f08c00" /><text x="130" y="148" font-size="11" fill="#f08c00">narrows down to</text><text x="240" y="54" font-size="10" fill="currentColor" fill-opacity=".7">Violentmonkey</text><rect x="240" y="60" width="114" height="60" rx="6" fill="#f08c00" /><g font-size="11" fill="#fff"><text x="247" y="78">script injected</text><text x="247" y="94">before the</text><text x="247" y="110">request?</text></g></svg>
