<svg xmlns="http://www.w3.org/2000/svg" viewBox="0 0 360 310" width="100%" style="max-width:340px" font-family="inherit"><text x="8" y="14" font-size="9" letter-spacing="1" fill="currentColor" fill-opacity=".55">EXAMPLE</text><line x1="20" y1="104" x2="334" y2="104" stroke="currentColor" stroke-opacity=".5" stroke-width="1.5" /><polygon points="342,104 334,100 334,108" fill="currentColor" fill-opacity=".5" /><rect x="30" y="64" width="300" height="20" rx="3" fill="#fa5252" /><text x="38" y="78" font-size="11" fill="#fff">storage: Degraded</text><line x1="30" y1="52" x2="170" y2="52" stroke="currentColor" stroke-opacity=".6" /><line x1="30" y1="47" x2="30" y2="57" stroke="currentColor" stroke-opacity=".6" /><line x1="170" y1="47" x2="170" y2="57" stroke="currentColor" stroke-opacity=".6" /><text x="100" y="42" font-size="11" text-anchor="middle" fill="currentColor">already there</text><line x1="170" y1="58" x2="170" y2="104" stroke="#37b24d" stroke-width="3" /><circle cx="170" cy="104" r="5" fill="#37b24d" /><text x="170" y="126" font-size="11" text-anchor="middle" fill="#37b24d">release deploy</text><line x1="0" y1="150" x2="360" y2="150" stroke="currentColor" stroke-opacity=".2" /><text x="8" y="164" font-size="9" letter-spacing="1" fill="currentColor" fill-opacity=".55">DEEP DIVE</text><text x="10" y="194" font-size="12" fill="currentColor">old</text><rect x="100" y="182" width="235" height="16" rx="3" fill="currentColor" fill-opacity=".25" /><text x="106" y="194" font-size="10" fill="currentColor">age only</text><line x1="220" y1="172" x2="220" y2="208" stroke="#37b24d" stroke-width="3" /><text x="10" y="239" font-size="12" fill="currentColor">existing</text><line x1="100" y1="235" x2="215" y2="235" stroke="currentColor" stroke-opacity=".4" stroke-dasharray="4 4" /><text x="158" y="230" font-size="11" text-anchor="middle" fill="currentColor" fill-opacity=".7">?</text><rect x="220" y="227" width="115" height="16" rx="3" fill="#fa5252" /><text x="228" y="239" font-size="10" fill="#fff">there now</text><line x1="220" y1="217" x2="220" y2="253" stroke="#37b24d" stroke-width="3" /><text x="10" y="284" font-size="12" font-weight="bold" fill="#f08c00">pre-existing</text><rect x="100" y="272" width="235" height="16" rx="3" fill="#fa5252" /><text x="106" y="284" font-size="10" fill="#fff">before release</text><line x1="220" y1="262" x2="220" y2="298" stroke="#37b24d" stroke-width="3" /></svg>
