<svg xmlns="http://www.w3.org/2000/svg" viewBox="0 0 360 280" width="100%" style="max-width:340px" font-family="inherit"><text x="10" y="16" font-size="9" letter-spacing="1" fill="currentColor" fill-opacity=".55">MEANING</text><text x="40" y="34" font-size="10" fill="currentColor" fill-opacity=".55">first read</text><line x1="40" y1="40" x2="292" y2="40" stroke="currentColor" stroke-opacity=".4" /><polygon points="298,40 290,36 290,44" fill="currentColor" fill-opacity=".4" /><g font-size="11" text-anchor="middle" fill="currentColor"><rect x="40" y="50" width="36" height="26" rx="3" fill="none" stroke="currentColor" stroke-opacity=".5" /><text x="58" y="67">1</text><rect x="84" y="50" width="36" height="26" rx="3" fill="none" stroke="currentColor" stroke-opacity=".5" /><text x="102" y="67">2</text><rect x="128" y="50" width="36" height="26" rx="3" fill="none" stroke="#f08c00" stroke-width="1.5" /><text x="146" y="67">3</text><rect x="172" y="50" width="36" height="26" rx="3" fill="none" stroke="#f08c00" stroke-width="1.5" /><text x="190" y="67">4</text><rect x="216" y="50" width="36" height="26" rx="3" fill="none" stroke="#f08c00" stroke-width="1.5" /><text x="234" y="67">5</text><rect x="260" y="50" width="36" height="26" rx="3" fill="none" stroke="#f08c00" stroke-width="1.5" /><text x="278" y="67">6</text></g><line x1="128" y1="46" x2="128" y2="116" stroke="#f08c00" stroke-width="1.5" /><text x="122" y="114" font-size="10" text-anchor="end" fill="#f08c00">offset 3</text><line x1="296" y1="90" x2="138" y2="90" stroke="#f08c00" stroke-dasharray="3 3" /><polygon points="130,90 138,86 138,94" fill="#f08c00" /><line x1="128" y1="108" x2="292" y2="108" stroke="#f08c00" stroke-width="2" /><polygon points="300,108 290,103 290,113" fill="#f08c00" /><text x="306" y="112" font-size="11" font-weight="bold" fill="#f08c00">replay</text><line x1="0" y1="130" x2="360" y2="130" stroke="currentColor" stroke-opacity=".2" /><text x="10" y="146" font-size="9" letter-spacing="1" fill="currentColor" fill-opacity=".55">EXAMPLE</text><text x="20" y="174" font-size="11" font-weight="bold" fill="#f08c00">replay</text><rect x="20" y="182" width="72" height="22" rx="3" fill="#f08c00" /><text x="56" y="197" font-size="10" text-anchor="middle" fill="#fff">uuid: a</text><rect x="20" y="212" width="72" height="22" rx="3" fill="#f08c00" /><text x="56" y="227" font-size="10" text-anchor="middle" fill="#fff">uuid: b</text><text x="130" y="202" font-size="10" text-anchor="middle" fill="currentColor">upsert</text><line x1="98" y1="208" x2="158" y2="208" stroke="currentColor" stroke-width="1.5" /><polygon points="166,208 157,203 157,213" fill="currentColor" /><rect x="170" y="164" width="170" height="96" rx="4" fill="none" stroke="currentColor" stroke-opacity=".6" /><text x="178" y="180" font-size="11" font-weight="bold" fill="currentColor">sync_event</text><line x1="170" y1="186" x2="340" y2="186" stroke="currentColor" stroke-opacity=".3" /><text x="178" y="199" font-size="10" fill="currentColor" fill-opacity=".55">event_uuid</text><g font-size="11" fill="currentColor"><text x="178" y="218">a</text><text x="178" y="236">b</text><text x="178" y="254">c</text></g><g font-size="10" fill="#37b24d"><text x="262" y="218">still 1 row</text><text x="262" y="236">still 1 row</text></g><line x1="170" y1="223" x2="340" y2="223" stroke="currentColor" stroke-opacity=".15" /><line x1="170" y1="241" x2="340" y2="241" stroke="currentColor" stroke-opacity=".15" /><text x="255" y="275" font-size="11" font-weight="bold" text-anchor="middle" fill="#37b24d">no duplicates</text></svg>
