<svg xmlns="http://www.w3.org/2000/svg" viewBox="0 0 360 160" width="100%" style="max-width:340px" font-family="inherit"><text x="12" y="16" font-size="9" letter-spacing="1" fill="currentColor" fill-opacity=".55">EXAMPLE</text><g fill="none" stroke="currentColor" stroke-width="1.5"><rect x="20" y="28" width="70" height="104" rx="9" /><rect x="145" y="28" width="70" height="104" rx="9" /><rect x="270" y="28" width="70" height="104" rx="9" /></g><rect x="145" y="28" width="70" height="104" rx="9" fill="currentColor" fill-opacity=".12" /><g font-size="10" fill="currentColor" text-anchor="middle"><text x="55" y="52">web</text><text x="55" y="64">process</text><text x="180" y="52">web</text><text x="180" y="64">process</text><text x="305" y="52">web</text><text x="305" y="64">process</text></g><g fill="none" stroke="currentColor" stroke-opacity=".4"><rect x="30" y="84" width="50" height="8" rx="2" /><rect x="155" y="84" width="50" height="8" rx="2" /><rect x="280" y="84" width="50" height="8" rx="2" /></g><rect x="30" y="84" width="30" height="8" rx="2" fill="#339af0" /><rect x="155" y="84" width="30" height="8" rx="2" fill="#f08c00" /><rect x="280" y="84" width="44" height="8" rx="2" fill="#37b24d" /><line x1="310" y1="80" x2="310" y2="96" stroke="currentColor" stroke-width="1.5" /><g stroke="currentColor" stroke-width="1.5" fill="none"><path d="M175 108v-4a5 5 0 0 1 10 0v4" /><rect x="172" y="108" width="16" height="12" rx="2" fill="currentColor" /></g><g stroke="currentColor" stroke-width="1.5"><line x1="95" y1="80" x2="134" y2="80" /><line x1="220" y1="80" x2="259" y2="80" /></g><polygon points="140,80 133,76 133,84" fill="currentColor" /><polygon points="265,80 258,76 258,84" fill="currentColor" /><g font-size="10" fill="currentColor" fill-opacity=".7" text-anchor="middle"><text x="117" y="72">lock</text><text x="242" y="72">reopen</text></g><g font-size="11" text-anchor="middle"><text x="55" y="147" fill="currentColor">running</text><text x="180" y="147" fill="#f08c00" font-weight="bold">suspended</text><text x="180" y="158" fill="currentColor" fill-opacity=".6" font-size="10">state kept</text><text x="305" y="147" fill="currentColor">continues</text></g></svg>
