<svg xmlns="http://www.w3.org/2000/svg" viewBox="0 0 360 280" width="100%" style="max-width:340px" font-family="inherit"><text x="10" y="14" font-size="9" letter-spacing="1" fill="currentColor" fill-opacity=".55">MEANING</text><rect x="20" y="78" width="320" height="56" fill="currentColor" fill-opacity=".07" /><line x1="20" y1="78" x2="340" y2="78" stroke="currentColor" stroke-width="1.5" /><path d="M160 78 L160 42" stroke="#37b24d" stroke-width="2.5" fill="none" /><ellipse cx="148" cy="52" rx="12" ry="6" fill="#f08c00" transform="rotate(-25 148 52)" /><ellipse cx="172" cy="46" rx="12" ry="6" fill="#f08c00" transform="rotate(25 172 46)" /><ellipse cx="150" cy="68" rx="10" ry="5" fill="#f08c00" transform="rotate(-20 150 68)" /><circle cx="160" cy="38" r="5" fill="#f08c00" /><path d="M160 78 L160 112 M160 88 L140 108 L132 124 M160 92 L182 112 L190 126 M160 102 L150 122 M140 108 L126 112 M182 112 L198 114" stroke="currentColor" stroke-width="2" fill="none" stroke-linecap="round" /><line x1="182" y1="50" x2="212" y2="50" stroke="#f08c00" stroke-width="1.2" /><text x="218" y="48" font-size="13" font-weight="bold" fill="#f08c00">symptom</text><text x="218" y="62" font-size="10" fill="currentColor" fill-opacity=".7">what you see</text><line x1="196" y1="108" x2="212" y2="108" stroke="currentColor" stroke-width="1.2" stroke-opacity=".6" /><text x="218" y="106" font-size="12" fill="currentColor">cause</text><text x="218" y="120" font-size="10" fill="currentColor" fill-opacity=".7">hidden below</text><line x1="0" y1="140" x2="360" y2="140" stroke="currentColor" stroke-opacity=".2" /><text x="10" y="154" font-size="9" letter-spacing="1" fill="currentColor" fill-opacity=".55">EXAMPLE</text><rect x="20" y="165" width="130" height="65" rx="6" fill="none" stroke="currentColor" stroke-opacity=".6" /><text x="30" y="182" font-size="11" fill="currentColor" fill-opacity=".7">observed</text><text x="30" y="201" font-size="11" fill="#f08c00">conn drops</text><text x="30" y="219" font-size="11" fill="#f08c00">retries spike</text><rect x="210" y="165" width="130" height="65" rx="6" fill="none" stroke="currentColor" stroke-opacity=".6" /><text x="220" y="182" font-size="11" fill="currentColor" fill-opacity=".7">'reset' symptoms</text><text x="220" y="201" font-size="11" fill="#f08c00">conn drops</text><text x="220" y="219" font-size="11" fill="#f08c00">retries spike</text><line x1="152" y1="197" x2="166" y2="197" stroke="#37b24d" stroke-width="1.5" /><line x1="194" y1="197" x2="208" y2="197" stroke="#37b24d" stroke-width="1.5" /><circle cx="180" cy="197" r="12" fill="#37b24d" /><path d="M174 197 L178 201 L186 192" stroke="#fff" stroke-width="2.2" fill="none" stroke-linecap="round" stroke-linejoin="round" /><text x="180" y="224" font-size="10" fill="#37b24d" text-anchor="middle">match</text><text x="180" y="258" font-size="12" fill="currentColor" text-anchor="middle">genuine <tspan fill="#f08c00" font-weight="bold">symptom</tspan> match</text></svg>
