<svg xmlns="http://www.w3.org/2000/svg" viewBox="0 0 360 160" width="100%" style="max-width:340px" font-family="inherit"><text x="10" y="16" font-size="9" letter-spacing="1" fill="currentColor" fill-opacity=".55">EXAMPLE</text><g fill="none" stroke="currentColor" stroke-width="1.5"><rect x="16" y="26" width="130" height="92" rx="6" stroke-opacity=".5" /><rect x="214" y="26" width="130" height="92" rx="6" stroke-opacity=".5" /></g><text x="26" y="44" font-size="12" fill="#f08c00" font-weight="bold">tally A</text><text x="84" y="44" font-size="10" fill="currentColor" fill-opacity=".6">method 1</text><text x="224" y="44" font-size="12" fill="#f08c00" font-weight="bold">tally B</text><text x="282" y="44" font-size="10" fill="currentColor" fill-opacity=".6">method 2</text><g stroke="currentColor" stroke-width="2" stroke-linecap="round"><line x1="28" y1="54" x2="28" y2="80" /><line x1="34" y1="54" x2="34" y2="80" /><line x1="40" y1="54" x2="40" y2="80" /><line x1="46" y1="54" x2="46" y2="80" /><line x1="24" y1="76" x2="50" y2="58" /><line x1="62" y1="54" x2="62" y2="80" /><line x1="68" y1="54" x2="68" y2="80" /><line x1="74" y1="54" x2="74" y2="80" /><line x1="80" y1="54" x2="80" y2="80" /><line x1="58" y1="76" x2="84" y2="58" /><line x1="96" y1="54" x2="96" y2="80" /><line x1="102" y1="54" x2="102" y2="80" /><line x1="226" y1="54" x2="226" y2="80" /><line x1="232" y1="54" x2="232" y2="80" /><line x1="238" y1="54" x2="238" y2="80" /><line x1="244" y1="54" x2="244" y2="80" /><line x1="222" y1="76" x2="248" y2="58" /><line x1="260" y1="54" x2="260" y2="80" /><line x1="266" y1="54" x2="266" y2="80" /><line x1="272" y1="54" x2="272" y2="80" /><line x1="278" y1="54" x2="278" y2="80" /><line x1="256" y1="76" x2="282" y2="58" /><line x1="294" y1="54" x2="294" y2="80" /><line x1="300" y1="54" x2="300" y2="80" /><line x1="306" y1="54" x2="306" y2="80" /></g><g stroke="currentColor" stroke-width="2" stroke-opacity=".3" stroke-dasharray="3 3"><line x1="108" y1="54" x2="108" y2="80" /><line x1="312" y1="54" x2="312" y2="80" /></g><text x="26" y="106" font-size="13" fill="currentColor">= 10,000</text><text x="224" y="106" font-size="13" fill="currentColor">= 10,015</text><text x="180" y="80" font-size="15" fill="#f08c00" text-anchor="middle" font-weight="bold">≈</text><text x="180" y="142" font-size="12" fill="currentColor" text-anchor="middle">agree within <tspan fill="#f08c00" font-weight="bold">0.15%</tspan> on output</text></svg>
