<svg xmlns="http://www.w3.org/2000/svg" viewBox="0 0 360 280" width="100%" style="max-width:340px" font-family="inherit"><text x="12" y="16" font-size="9" letter-spacing="1" fill="currentColor" fill-opacity=".55">MEANING</text><rect x="60" y="28" width="80" height="64" rx="6" fill="none" stroke="currentColor" stroke-width="1.5" /><circle cx="100" cy="52" r="10" fill="none" stroke="currentColor" stroke-width="1.5" /><line x1="70" y1="80" x2="130" y2="80" stroke="currentColor" stroke-width="1.5" /><rect x="200" y="28" width="80" height="64" rx="6" fill="none" stroke="currentColor" stroke-width="1.5" /><circle cx="240" cy="52" r="10" fill="none" stroke="currentColor" stroke-width="1.5" /><line x1="210" y1="80" x2="250" y2="80" stroke="currentColor" stroke-width="1.5" /><rect x="257" y="75" width="10" height="10" fill="#f08c00" /><ellipse cx="248" cy="80" rx="26" ry="12" fill="none" stroke="#f08c00" stroke-width="1.5" stroke-dasharray="3 3" /><text x="170" y="66" font-size="18" text-anchor="middle" fill="currentColor" fill-opacity=".6">≈</text><text x="240" y="112" font-size="11" text-anchor="middle" fill="#f08c00">the difference</text><line x1="0" y1="120" x2="360" y2="120" stroke="currentColor" stroke-opacity=".2" /><text x="12" y="136" font-size="9" letter-spacing="1" fill="currentColor" fill-opacity=".55">DEEP DIVE</text><text x="12" y="169" font-size="12" fill="currentColor">distinguish</text><rect x="140" y="151" width="28" height="28" fill="none" stroke="currentColor" stroke-width="1.5" /><rect x="180" y="151" width="28" height="28" rx="8" fill="none" stroke="currentColor" stroke-width="1.5" /><ellipse cx="245" cy="165" rx="11" ry="6" fill="none" stroke="currentColor" stroke-width="1.5" /><circle cx="245" cy="165" r="3" fill="currentColor" /><text x="270" y="169" font-size="11" fill="currentColor" fill-opacity=".6">formal</text><text x="12" y="209" font-size="12" fill="currentColor">differentiate</text><rect x="140" y="191" width="28" height="28" fill="none" stroke="currentColor" stroke-width="1.5" /><rect x="180" y="191" width="28" height="28" rx="8" fill="none" stroke="currentColor" stroke-width="1.5" /><line x1="174" y1="187" x2="174" y2="223" stroke="#339af0" stroke-width="2.5" /><text x="225" y="209" font-size="11" fill="#339af0">points out</text><text x="12" y="249" font-size="12" font-weight="bold" fill="#f08c00">tell apart</text><rect x="140" y="231" width="28" height="28" fill="none" stroke="#f08c00" stroke-width="1.5" /><rect x="196" y="231" width="28" height="28" rx="8" fill="none" stroke="#f08c00" stroke-width="1.5" /><ellipse cx="252" cy="245" rx="11" ry="6" fill="none" stroke="#f08c00" stroke-width="1.5" /><circle cx="252" cy="245" r="3" fill="#f08c00" /><text x="272" y="249" font-size="11" fill="#f08c00">everyday</text></svg>
